<?xml version="1.0" encoding="UTF-8" standalone="no"?>
<svg width="612px" height="430px" viewBox="0 30 612 430" version="1.1" xmlns="http://www.w3.org/2000/svg" xmlns:xlink="http://www.w3.org/1999/xlink">
    <!-- Generator: Sketch 40 (33762) - http://www.bohemiancoding.com/sketch -->
    <title>stars fg</title>
    <desc>Created with Sketch.</desc>
    <defs>
        <rect id="path-1" x="0" y="0" width="612" height="430"></rect>
        <mask id="mask-2" maskContentUnits="userSpaceOnUse" maskUnits="objectBoundingBox" x="0" y="0" width="612" height="430" fill="white">
            <use xlink:href="#path-1"></use>
        </mask>
        <mask id="mask-4" maskContentUnits="userSpaceOnUse" maskUnits="objectBoundingBox" x="0" y="0" width="612" height="430" fill="white">
            <use xlink:href="#path-1"></use>
        </mask>
    </defs>
    <g id="Screens" stroke="none" stroke-width="1" fill="none" fill-rule="evenodd">
        <g id="Plans" transform="translate(-758.000000, -1234.000000)">
            <g id="stars-fg" transform="translate(758.000000, 1234.000000)">
                <mask id="mask-3" fill="white">
                    <use xlink:href="#path-1"></use>
                </mask>
                <g id="Mask" stroke-opacity="0.01" stroke="#FFFFFF" mask="url(#mask-2)" stroke-width="2">
                    <use mask="url(#mask-4)" xlink:href="#path-1"></use>
                </g>
                <g id="Page-1" mask="url(#mask-3)">
                    <g transform="translate(6.000000, 115.000000)">
                        <path d="M114.3909,56.2032 C114.3909,58.4532 116.2149,60.2762 118.4639,60.2762 C120.7139,60.2762 122.5369,58.4532 122.5369,56.2032 C122.5369,53.9532 120.7139,52.1302 118.4639,52.1302 C116.2149,52.1302 114.3909,53.9532 114.3909,56.2032" id="Fill-5" stroke="none" fill="#F2F8EA" fill-rule="evenodd"></path>
                        <path d="M114.3909,56.2032 C114.3909,58.4532 116.2149,60.2762 118.4639,60.2762 C120.7139,60.2762 122.5369,58.4532 122.5369,56.2032 C122.5369,53.9532 120.7139,52.1302 118.4639,52.1302 C116.2149,52.1302 114.3909,53.9532 114.3909,56.2032 L114.3909,56.2032 Z" id="Stroke-7" stroke="#679F42" stroke-width="2" fill="none"></path>
                        <path d="M138.3909,207.2032 C138.3909,209.4532 140.2149,211.2762 142.4639,211.2762 C144.7139,211.2762 146.5369,209.4532 146.5369,207.2032 C146.5369,204.9532 144.7139,203.1302 142.4639,203.1302 C140.2149,203.1302 138.3909,204.9532 138.3909,207.2032" id="Fill-9" stroke="none" fill="#E0F8FA" fill-rule="evenodd"></path>
                        <path d="M138.3909,207.2032 C138.3909,209.4532 140.2149,211.2762 142.4639,211.2762 C144.7139,211.2762 146.5369,209.4532 146.5369,207.2032 C146.5369,204.9532 144.7139,203.1302 142.4639,203.1302 C140.2149,203.1302 138.3909,204.9532 138.3909,207.2032 L138.3909,207.2032 Z" id="Stroke-11" stroke="#00ACC1" stroke-width="2" fill="none"></path>
                        <path d="M4,137 L4,146" id="Stroke-13" stroke="#F9A825" stroke-width="2" stroke-linecap="round" stroke-linejoin="round" fill="none"></path>
                        <path d="M0,142 L9,142" id="Stroke-15" stroke="#F9A825" stroke-width="2" stroke-linecap="round" stroke-linejoin="round" fill="none"></path>
                    </g>
                </g>
            </g>
        </g>
    </g>
</svg>